# xmcd
#
# Track frame offsets:
#	150
#	14105
#	30680
#	42005
#	54380
#	67370
#	88670
#	104982
#	117982
#	132942
#	147592
#	165109
#	176675
#	189037
#	201205
#	214800
#	233400
#	249267
#	265350
#	277957
#	291540
#	305780
#	323935
#
# Disc length: 4534 seconds
#
# Revision: 1
# Processed by: cddbd v1.4b42PL1 Copyright (c) Steve Scherf et al.
# Submitted via: audiograbber 1.80
#
DISCID=6211b417
DTITLE=John Hammond - Best of the Vanguard Years
DYEAR=1900
DGENRE=
TTITLE0=32-20 Blues
TTITLE1=Statesborough Blues
TTITLE2=Seventh Son
TTITLE3=Drop Down Mama
TTITLE4=Going Back to Florida
TTITLE5=Ask Me Nice
TTITLE6=Hellhound Blues
TTITLE7=I'm Ready
TTITLE8=I'm a Man
TTITLE9=Keys to the Highway
TTITLE10=No Money Down
TTITLE11=I Live the Life I Love
TTITLE12=Big Boss Man
TTITLE13=So Many Roads, So Many Trains
TTITLE14=Who Do You Love
TTITLE15=I Want You to Love Me
TTITLE16=You Can't Judge a Book by the Cover
TTITLE17=O Yea!
TTITLE18=Who's Been Talkin'
TTITLE19=Pretty Thing
TTITLE20=Last Night
TTITLE21=I Wish You Would
TTITLE22=Guitar King
EXTD=
EXTT0=
EXTT1=
EXTT2=
EXTT3=
EXTT4=
EXTT5=
EXTT6=
EXTT7=
EXTT8=
EXTT9=
EXTT10=
EXTT11=
EXTT12=
EXTT13=
EXTT14=
EXTT15=
EXTT16=
EXTT17=
EXTT18=
EXTT19=
EXTT20=
EXTT21=
EXTT22=
PLAYORDER=
